<svg width="16" height="8" viewBox="0 0 16 8" fill="none" xmlns="http://www.w3.org/2000/svg">
<path d="M15.2253 6.57502C15.2253 6.73335 15.1669 6.89169 15.0419 7.01669C14.8003 7.25835 14.4003 7.25835 14.1586 7.01669L8.72526 1.58335C8.32526 1.18335 7.67526 1.18335 7.27526 1.58335L1.84193 7.01669C1.60026 7.25835 1.20026 7.25835 0.958594 7.01669C0.716927 6.77502 0.716927 6.37502 0.958594 6.13335L6.39193 0.70002C6.81693 0.275021 7.39193 0.0333538 8.00026 0.0333538C8.60859 0.0333538 9.18359 0.266687 9.60859 0.70002L15.0419 6.13335C15.1586 6.25835 15.2253 6.41669 15.2253 6.57502Z" fill="#292D32"/>
</svg>
