<svg width="24" height="24" viewBox="0 0 24 24" fill="none" xmlns="http://www.w3.org/2000/svg">
<path d="M20.4003 22.8L1.20039 3.6C0.544396 2.944 0.544396 1.856 1.20039 1.2C1.85639 0.544 2.94439 0.544 3.60039 1.2L22.8003 20.4C23.4563 21.056 23.4563 22.144 22.8003 22.8C22.1443 23.456 21.0563 23.456 20.4003 22.8Z" fill="#1E1E1E"/>
<path d="M1.20065 22.8C0.544649 22.144 0.544648 21.056 1.20065 20.4L20.4006 1.2C21.0566 0.544 22.1446 0.544 22.8006 1.2C23.4566 1.856 23.4566 2.944 22.8006 3.6L3.60064 22.8C2.94464 23.456 1.85664 23.456 1.20065 22.8Z" fill="#1E1E1E"/>
</svg>
