<svg width="22" height="24" viewBox="0 0 22 24" fill="none" xmlns="http://www.w3.org/2000/svg">
<path d="M1.40039 5.39999H20.6004M8.60039 17.4V10.2M13.4004 17.4V10.2M15.8004 22.2H6.20039C4.87491 22.2 3.80039 21.1255 3.80039 19.8V6.59999C3.80039 5.93725 4.33765 5.39999 5.00039 5.39999H17.0004C17.6631 5.39999 18.2004 5.93725 18.2004 6.59999V19.8C18.2004 21.1255 17.1259 22.2 15.8004 22.2ZM8.60039 5.39999H13.4004C14.0631 5.39999 14.6004 4.86273 14.6004 4.19999V2.99999C14.6004 2.33725 14.0631 1.79999 13.4004 1.79999H8.60039C7.93765 1.79999 7.40039 2.33725 7.40039 2.99999V4.19999C7.40039 4.86273 7.93765 5.39999 8.60039 5.39999Z" stroke="#1E1E1E" stroke-width="2" stroke-linecap="round" stroke-linejoin="round"/>
</svg>
