<svg width="14" height="15" viewBox="0 0 14 15" fill="none" xmlns="http://www.w3.org/2000/svg">
<path fill-rule="evenodd" clip-rule="evenodd" d="M9.61462 0.271531C10.5639 0.150147 11.5024 0.543513 12.4268 1.41331L12.4282 1.41462C13.3554 2.29146 13.8051 3.20845 13.7382 4.16527C13.6741 5.08257 13.144 5.84373 12.5703 6.44984C12.5702 6.44994 12.5704 6.44974 12.5703 6.44984L6.41696 12.963C6.2245 13.1722 5.97184 13.3437 5.73962 13.4678C5.50366 13.594 5.22519 13.7052 4.95665 13.753L4.95166 13.7538L2.53781 14.1661C2.53773 14.1661 2.53788 14.1661 2.53781 14.1661C1.90232 14.2756 1.27869 14.1181 0.830227 13.6928C0.382461 13.2682 0.19155 12.6549 0.262464 12.0167L0.26272 12.0144L0.54022 9.58444L0.541956 9.57041C0.577615 9.30297 0.675198 9.02142 0.786594 8.78255C0.89748 8.54477 1.05201 8.28497 1.24124 8.08353L1.2427 8.08198L7.40072 1.56393C7.97476 0.957554 8.70466 0.387891 9.61462 0.271531ZM8.49046 2.59469L2.33451 9.11054C2.33433 9.11073 2.33415 9.11093 2.33397 9.11112C2.29063 9.15749 2.21673 9.26493 2.14604 9.41652C2.07726 9.564 2.03996 9.69227 2.02952 9.76348L1.75329 12.1824C1.75325 12.1827 1.75322 12.183 1.75318 12.1833C1.72691 12.422 1.80213 12.5472 1.8624 12.6044C1.92201 12.6609 2.04851 12.7284 2.28295 12.6879L4.69593 12.2758C4.76529 12.2631 4.89085 12.2207 5.03238 12.145C5.17684 12.0678 5.27424 11.99 5.31366 11.9467L5.3227 11.937L11.4807 5.41893C11.9719 4.90009 12.2141 4.4576 12.2419 4.06068C12.2669 3.70324 12.128 3.19545 11.3983 2.50513C10.673 1.82299 10.1605 1.71394 9.80488 1.75942C9.40999 1.80991 8.98121 2.07643 8.49046 2.59469Z" fill="#1E1E1E"/>
<path fill-rule="evenodd" clip-rule="evenodd" d="M6.80262 2.42555C7.2119 2.36179 7.59537 2.64188 7.65914 3.05116C7.92876 4.78178 9.33329 6.10688 11.0807 6.28289C11.4929 6.3244 11.7933 6.69214 11.7518 7.10427C11.7103 7.5164 11.3425 7.81685 10.9304 7.77534C8.50787 7.53134 6.55239 5.69145 6.17702 3.28207C6.11325 2.87279 6.39334 2.48932 6.80262 2.42555Z" fill="#1E1E1E"/>
</svg>
