<svg width="24" height="24" viewBox="0 0 24 24" fill="none" xmlns="http://www.w3.org/2000/svg">
<path d="M16.9817 0H6.95776C2.59852 0 -0.000244141 2.59878 -0.000244141 6.95801V16.9819C-0.000244141 21.3411 2.59852 23.9399 6.95776 23.9399H16.9817C21.3409 23.9399 23.9397 21.3411 23.9397 16.9819V6.95801C23.9397 2.59878 21.3409 0 16.9817 0Z" fill="#1E1E1E"/>
<path d="M14.2631 8.71894L14.3229 12.2518L17.4726 12.2039C17.7002 12.2039 17.8678 12.4075 17.8319 12.6231L17.4126 14.9105C17.3767 15.0782 17.2331 15.1979 17.0654 15.2099L14.3709 15.2578L14.5146 23.9404L10.9218 24.0002L10.7781 15.3177L8.74212 15.3536C8.53853 15.3536 8.38285 15.1979 8.38285 14.9943L8.34692 12.7189C8.34692 12.5153 8.5026 12.3596 8.70619 12.3596L10.7421 12.3237L10.6823 8.43152C10.6463 6.44352 12.2272 4.81479 14.2152 4.77886L17.4485 4.73096C17.6521 4.73096 17.8079 4.88664 17.8079 5.09023L17.8558 7.96446C17.8558 8.16805 17.7002 8.32374 17.4966 8.32374L14.6223 8.37164C14.4188 8.35966 14.2631 8.52733 14.2631 8.71894Z" fill="white"/>
</svg>
