<svg width="24" height="24" viewBox="0 0 24 24" fill="none" xmlns="http://www.w3.org/2000/svg">
<path d="M17.0362 0H6.97523C2.60505 0 -0.000244141 2.604 -0.000244141 6.972V17.016C-0.000244141 21.396 2.60505 24 6.97523 24H17.0242C21.3944 24 23.9997 21.396 23.9997 17.028V6.972C24.0117 2.604 21.4064 0 17.0362 0Z" fill="#1E1E1E"/>
<path d="M12.0057 16.6562C14.5784 16.6562 16.664 14.5717 16.664 12.0002C16.664 9.42879 14.5784 7.34424 12.0057 7.34424C9.43302 7.34424 7.34741 9.42879 7.34741 12.0002C7.34741 14.5717 9.43302 16.6562 12.0057 16.6562Z" fill="white"/>
<path d="M18.0085 6.59979C17.6843 6.59979 17.3841 6.47979 17.156 6.25179C17.048 6.13179 16.9639 5.99979 16.9039 5.85579C16.8439 5.71179 16.8079 5.55579 16.8079 5.39979C16.8079 5.24379 16.8439 5.08779 16.9039 4.94379C16.9639 4.78779 17.048 4.66779 17.156 4.54779C17.4322 4.27179 17.8524 4.13979 18.2366 4.22379C18.3206 4.23579 18.3927 4.25979 18.4647 4.29579C18.5367 4.31979 18.6088 4.35579 18.6808 4.40379C18.7408 4.43979 18.8009 4.49979 18.8609 4.54779C18.9689 4.66779 19.053 4.78779 19.113 4.94379C19.173 5.08779 19.2091 5.24379 19.2091 5.39979C19.2091 5.55579 19.173 5.71179 19.113 5.85579C19.053 5.99979 18.9689 6.13179 18.8609 6.25179C18.7408 6.35979 18.6088 6.44379 18.4647 6.50379C18.3206 6.56379 18.1645 6.59979 18.0085 6.59979Z" fill="white"/>
</svg>
