<svg width="40" height="60" viewBox="0 0 40 60" fill="none" xmlns="http://www.w3.org/2000/svg">
<g clip-path="url(#clip0_994_349)">
<path d="M7.58949 51.4573H6.64258V59.9999H11.083V59.1493H7.58949V51.4573Z" fill="white"/>
<path d="M18.7617 51.4573L16.3271 59.9971H17.3721L17.9968 57.5432H20.6919L21.3699 59.9971H22.412L20.0167 51.4573H18.7617ZM18.221 56.6925L19.3528 52.1456H19.3752L20.4818 56.6925H18.221Z" fill="white"/>
<path d="M31.5813 55.4838V55.4614C31.9791 55.3578 32.2873 55.1396 32.503 54.8094C32.7187 54.4792 32.828 54.0763 32.828 53.595C32.828 52.9319 32.6319 52.4086 32.2369 52.0281C31.8419 51.6475 31.2564 51.4573 30.4803 51.4573H28.2363V59.9971H30.5952C31.3908 59.9971 32.0016 59.7873 32.4274 59.3675C32.8532 58.9478 33.0661 58.3434 33.0661 57.5516C33.0661 56.9752 32.9233 56.4995 32.6375 56.1245C32.3489 55.7524 31.9988 55.5369 31.5813 55.4838ZM29.1804 52.3163H30.4551C30.9062 52.3163 31.2508 52.4226 31.4861 52.6325C31.7214 52.8423 31.8391 53.1837 31.8391 53.6538C31.8391 54.1798 31.7158 54.5492 31.4721 54.7646C31.2255 54.9801 30.8557 55.0892 30.3571 55.0892H29.1804V52.3163ZM31.7186 58.7632C31.4777 59.0206 31.1051 59.1493 30.5952 59.1493H29.1804V55.9455H30.514C31.5561 55.9455 32.08 56.4771 32.08 57.5432C32.08 58.1 31.9595 58.5057 31.7186 58.7632Z" fill="white"/>
<path d="M28.2561 41.317C28.0011 40.8945 27.4521 40.7574 27.0262 41.0092L20.7508 44.7727V24.5171H27.5193C28.0152 24.5171 28.4158 24.117 28.4158 23.6217C28.4158 23.1264 28.0152 22.7263 27.5193 22.7263H20.7508V2.47353L27.0262 6.237C27.1719 6.32374 27.3288 6.36571 27.4857 6.36571C27.791 6.36571 28.0852 6.21182 28.2533 5.932C28.5082 5.50949 28.3709 4.95826 27.9451 4.70363L20.3138 0.125915C20.297 0.114723 20.2746 0.114723 20.2578 0.106328C20.2046 0.078347 20.1457 0.0615585 20.0869 0.0447698C20.0281 0.0279811 19.972 0.0139906 19.9132 0.0111925C19.8908 0.00839434 19.874 0 19.8516 0C19.8151 0 19.7843 0.0167886 19.7479 0.0195867C19.6863 0.0279811 19.6274 0.0363754 19.5686 0.0559623C19.5126 0.0755491 19.465 0.097934 19.4173 0.125915C19.3669 0.153896 19.3221 0.181878 19.2773 0.221051C19.2296 0.260225 19.1932 0.304994 19.154 0.355361C19.1316 0.383342 19.1008 0.402928 19.0811 0.433708C19.0699 0.453295 19.0699 0.472881 19.0615 0.492468C19.0335 0.545632 19.0195 0.598797 19.0027 0.657557C18.9859 0.716317 18.9691 0.775078 18.9663 0.836636C18.9663 0.856223 18.9551 0.873012 18.9551 0.895397V46.3564C18.9551 46.376 18.9663 46.3956 18.9663 46.4151C18.9691 46.4767 18.9859 46.5355 19.0027 46.5942C19.0195 46.6502 19.0335 46.7061 19.0615 46.7565C19.0699 46.7761 19.0727 46.7985 19.0839 46.8153C19.1176 46.874 19.1624 46.9216 19.2072 46.9692C19.2128 46.9748 19.2184 46.9832 19.224 46.9888C19.2997 47.0615 19.3837 47.1175 19.4762 47.1594C19.4986 47.1706 19.5182 47.1762 19.5406 47.1846C19.6414 47.221 19.7451 47.249 19.8516 47.249C19.9552 47.249 20.0589 47.2238 20.1597 47.1874C20.1877 47.1762 20.213 47.1678 20.2382 47.1538C20.2634 47.1427 20.2886 47.1371 20.3138 47.1231L27.9479 42.5453C28.3709 42.2907 28.511 41.7423 28.2561 41.317Z" fill="white"/>
<path d="M16.8371 44.546C17.092 44.1235 16.9547 43.5723 16.5289 43.3177L1.79296 34.484V12.765L16.5289 3.9286C16.9519 3.67397 17.0892 3.12554 16.8371 2.70023C16.5821 2.27771 16.033 2.13781 15.6072 2.39243L0 11.7521V35.4969L15.6072 44.8538C15.7501 44.9406 15.9098 44.9826 16.0666 44.9826C16.372 44.9798 16.669 44.8259 16.8371 44.546Z" fill="white"/>
<path d="M39.2713 27.3125L32.0742 22.9978V9.30663L38.2796 13.0253C38.4252 13.1121 38.5821 13.154 38.739 13.154C39.0444 13.154 39.3385 13.0001 39.5066 12.7203C39.7616 12.2978 39.6243 11.7466 39.1984 11.492L32.0322 7.19685C31.9818 7.16608 31.9229 7.15768 31.8697 7.13809C31.7044 6.93103 31.4635 6.78833 31.1777 6.78833C30.6819 6.78833 30.2812 7.18846 30.2812 7.68373V39.5655C30.2812 40.0607 30.6819 40.4609 31.1777 40.4609C31.6736 40.4609 32.0742 40.0607 32.0742 39.5655V25.0852L38.3496 28.8487C38.4953 28.9354 38.6522 28.9774 38.809 28.9774C39.1144 28.9774 39.4086 28.8235 39.5767 28.5437C39.8344 28.1156 39.6971 27.5671 39.2713 27.3125Z" fill="white"/>
</g>
<defs>
<clipPath id="clip0_994_349">
<rect width="39.707" height="60" fill="white"/>
</clipPath>
</defs>
</svg>
