<svg width="56" height="56" viewBox="0 0 56 56" fill="none" xmlns="http://www.w3.org/2000/svg">
<path d="M33.6699 43.9131C33.2266 43.9131 32.7833 43.7498 32.4333 43.3998C31.7566 42.7231 31.7566 41.6031 32.4333 40.9265L45.36 27.9998L32.4333 15.0731C31.7566 14.3965 31.7566 13.2765 32.4333 12.5998C33.1099 11.9231 34.2299 11.9231 34.9066 12.5998L49.07 26.7631C49.7466 27.4398 49.7466 28.5598 49.07 29.2365L34.9066 43.3998C34.5566 43.7498 34.1133 43.9131 33.6699 43.9131Z" fill="#292D32"/>
<path d="M47.437 29.75H8.16699C7.21033 29.75 6.41699 28.9567 6.41699 28C6.41699 27.0433 7.21033 26.25 8.16699 26.25H47.437C48.3937 26.25 49.187 27.0433 49.187 28C49.187 28.9567 48.3937 29.75 47.437 29.75Z" fill="#292D32"/>
</svg>
