<svg width="16" height="8" viewBox="0 0 16 8" fill="none" xmlns="http://www.w3.org/2000/svg">
<path d="M15.2253 1.42504C15.2253 1.26671 15.1669 1.10837 15.0419 0.983374C14.8003 0.741707 14.4003 0.741707 14.1586 0.983374L8.72526 6.41671C8.32526 6.81671 7.67526 6.81671 7.27526 6.41671L1.84193 0.983374C1.60026 0.741707 1.20026 0.741707 0.958594 0.983374C0.716927 1.22504 0.716927 1.62504 0.958594 1.86671L6.39193 7.30004C6.81693 7.72504 7.39193 7.96671 8.00026 7.96671C8.60859 7.96671 9.18359 7.73337 9.60859 7.30004L15.0419 1.86671C15.1586 1.74171 15.2253 1.58337 15.2253 1.42504Z" fill="#292D32"/>
</svg>
