<svg width="116" height="22" viewBox="0 0 116 22" fill="none" xmlns="http://www.w3.org/2000/svg">
<path d="M84 3.70585C84 2.14646 85.2641 0.882324 86.8235 0.882324H113.176C114.736 0.882324 116 2.14646 116 3.70585V18.2941C116 19.8535 114.736 21.1176 113.176 21.1176H86.8235C85.2641 21.1176 84 19.8535 84 18.2941V3.70585Z" fill="white"/>
<path fill-rule="evenodd" clip-rule="evenodd" d="M113.176 1.58821H86.8235C85.654 1.58821 84.7059 2.53631 84.7059 3.70585V18.2941C84.7059 19.4636 85.654 20.4117 86.8235 20.4117H113.176C114.346 20.4117 115.294 19.4636 115.294 18.2941V3.70585C115.294 2.53631 114.346 1.58821 113.176 1.58821ZM86.8235 0.882324C85.2641 0.882324 84 2.14646 84 3.70585V18.2941C84 19.8535 85.2641 21.1176 86.8235 21.1176H113.176C114.736 21.1176 116 19.8535 116 18.2941V3.70585C116 2.14646 114.736 0.882324 113.176 0.882324H86.8235Z" fill="#C4C4C4"/>
<path d="M97.9607 14.5038H96.0547L97.2469 7.13232H99.1528L97.9607 14.5038Z" fill="#00579F"/>
<path d="M104.866 7.31725C104.49 7.1681 103.894 7.00342 103.156 7.00342C101.274 7.00342 99.9487 8.00714 99.9406 9.44215C99.9249 10.5009 100.89 11.089 101.611 11.442C102.348 11.8027 102.599 12.0382 102.599 12.3597C102.592 12.8535 102.003 13.0812 101.454 13.0812C100.694 13.0812 100.286 12.9638 99.6661 12.6891L99.4152 12.5713L99.1484 14.226C99.5955 14.4297 100.419 14.6104 101.274 14.6183C103.274 14.6183 104.576 13.6301 104.592 12.1009C104.599 11.2618 104.09 10.6188 102.992 10.0934C102.325 9.75608 101.917 9.52866 101.917 9.18356C101.925 8.86983 102.262 8.5485 103.015 8.5485C103.634 8.53276 104.089 8.6817 104.434 8.83075L104.607 8.90902L104.866 7.31725Z" fill="#00579F"/>
<path d="M107.402 11.8923C107.559 11.4688 108.163 9.82985 108.163 9.82985C108.155 9.84559 108.32 9.39856 108.414 9.12413L108.547 9.75929C108.547 9.75929 108.908 11.5238 108.986 11.8923C108.688 11.8923 107.779 11.8923 107.402 11.8923ZM109.755 7.13232H108.28C107.826 7.13232 107.48 7.26553 107.284 7.74394L104.453 14.5037H106.453C106.453 14.5037 106.782 13.5938 106.853 13.3979C107.072 13.3979 109.018 13.3979 109.3 13.3979C109.355 13.6567 109.528 14.5037 109.528 14.5037H111.292L109.755 7.13232Z" fill="#00579F"/>
<path d="M94.4597 7.13232L92.5931 12.1589L92.3891 11.1395C92.044 9.96316 90.9617 8.68512 89.7539 8.04964L91.4637 14.4959H93.4792L96.4752 7.13232H94.4597Z" fill="#00579F"/>
<path d="M90.8597 7.13232H87.7931L87.7617 7.28127C90.1539 7.89298 91.7381 9.3675 92.389 11.1398L91.7224 7.75196C91.6126 7.28116 91.2754 7.14785 90.8597 7.13232Z" fill="#FAA61A"/>
<path d="M42 3.70585C42 2.14646 43.2641 0.882324 44.8235 0.882324H71.1765C72.7359 0.882324 74 2.14646 74 3.70585V18.2941C74 19.8535 72.7359 21.1176 71.1765 21.1176H44.8235C43.2641 21.1176 42 19.8535 42 18.2941V3.70585Z" fill="white"/>
<path fill-rule="evenodd" clip-rule="evenodd" d="M71.1765 1.58821H44.8235C43.654 1.58821 42.7059 2.53631 42.7059 3.70585V18.2941C42.7059 19.4636 43.654 20.4117 44.8235 20.4117H71.1765C72.346 20.4117 73.2941 19.4636 73.2941 18.2941V3.70585C73.2941 2.53631 72.346 1.58821 71.1765 1.58821ZM44.8235 0.882324C43.2641 0.882324 42 2.14646 42 3.70585V18.2941C42 19.8535 43.2641 21.1176 44.8235 21.1176H71.1765C72.7359 21.1176 74 19.8535 74 18.2941V3.70585C74 2.14646 72.7359 0.882324 71.1765 0.882324H44.8235Z" fill="#C4C4C4"/>
<path d="M60.5428 6.35498H55.4531V15.5002H60.5428V6.35498Z" fill="#FF5F00"/>
<path d="M55.7761 10.9256C55.7761 9.0675 56.6486 7.41942 57.9896 6.35302C57.004 5.57746 55.7599 5.10889 54.4027 5.10889C51.1873 5.10889 48.5859 7.71026 48.5859 10.9256C48.5859 14.141 51.1873 16.7423 54.4027 16.7423C55.7599 16.7423 57.004 16.2738 57.9896 15.4982C56.6486 14.448 55.7761 12.7837 55.7761 10.9256Z" fill="#EB001B"/>
<path d="M67.4076 10.9256C67.4076 14.141 64.8062 16.7423 61.5909 16.7423C60.2337 16.7423 58.9895 16.2738 58.0039 15.4982C59.3611 14.4318 60.2175 12.7837 60.2175 10.9256C60.2175 9.0675 59.345 7.41942 58.0039 6.35302C58.9895 5.57746 60.2337 5.10889 61.5909 5.10889C64.8062 5.10889 67.4076 7.72642 67.4076 10.9256Z" fill="#F79E1B"/>
<path d="M0 3.70585C0 2.14646 1.26414 0.882324 2.82353 0.882324H29.1765C30.7359 0.882324 32 2.14646 32 3.70585V18.2941C32 19.8535 30.7359 21.1176 29.1765 21.1176H2.82353C1.26414 21.1176 0 19.8535 0 18.2941V3.70585Z" fill="white"/>
<path fill-rule="evenodd" clip-rule="evenodd" d="M29.1765 1.58821H2.82353C1.65399 1.58821 0.705882 2.53631 0.705882 3.70585V18.2941C0.705882 19.4636 1.65399 20.4117 2.82353 20.4117H29.1765C30.346 20.4117 31.2941 19.4636 31.2941 18.2941V3.70585C31.2941 2.53631 30.346 1.58821 29.1765 1.58821ZM2.82353 0.882324C1.26414 0.882324 0 2.14646 0 3.70585V18.2941C0 19.8535 1.26414 21.1176 2.82353 21.1176H29.1765C30.7359 21.1176 32 19.8535 32 18.2941V3.70585C32 2.14646 30.7359 0.882324 29.1765 0.882324H2.82353Z" fill="#C4C4C4"/>
<path fill-rule="evenodd" clip-rule="evenodd" d="M13.4531 6.35474H18.5443V15.5044H13.4531V6.35474Z" fill="#6C6BBD"/>
<path fill-rule="evenodd" clip-rule="evenodd" d="M13.7778 10.9279C13.7778 9.0718 14.6468 7.41848 16.0001 6.35299C15.0105 5.57387 13.7615 5.10889 12.4041 5.10889C9.19076 5.10889 6.58594 7.71407 6.58594 10.9279C6.58594 14.1416 9.19076 16.7468 12.4041 16.7468C13.7615 16.7468 15.0105 16.2818 16.0001 15.5027C14.6468 14.4372 13.7778 12.7839 13.7778 10.9279Z" fill="#EB001B"/>
<path fill-rule="evenodd" clip-rule="evenodd" d="M25.4107 10.9279C25.4107 14.1416 22.8058 16.7468 19.5924 16.7468C18.235 16.7468 16.986 16.2818 15.9961 15.5027C17.3497 14.4372 18.2187 12.7839 18.2187 10.9279C18.2187 9.0718 17.3497 7.41848 15.9961 6.35299C16.986 5.57387 18.235 5.10889 19.5924 5.10889C22.8058 5.10889 25.4107 7.71407 25.4107 10.9279Z" fill="#0099DF"/>
</svg>
