<svg width="24" height="24" viewBox="0 0 24 24" fill="none" xmlns="http://www.w3.org/2000/svg">
<ellipse cx="19.7764" cy="19.7764" rx="1.86069" ry="4.01035" transform="rotate(-45 19.7764 19.7764)" fill="white"/>
<path fill-rule="evenodd" clip-rule="evenodd" d="M10.5 20C15.7467 20 20 15.7467 20 10.5C20 5.25329 15.7467 1 10.5 1C5.25329 1 1 5.25329 1 10.5C1 15.7467 5.25329 20 10.5 20ZM10.5 17.0769C14.1323 17.0769 17.0769 14.1323 17.0769 10.5C17.0769 6.86764 14.1323 3.92305 10.5 3.92305C6.86764 3.92305 3.92305 6.86764 3.92305 10.5C3.92305 14.1323 6.86764 17.0769 10.5 17.0769Z" fill="white"/>
</svg>
