<svg width="25" height="24" viewBox="0 0 25 24" fill="none" xmlns="http://www.w3.org/2000/svg">
<path d="M17.9642 0H7.91516C3.54498 0 0.939697 2.6053 0.939697 6.97549V17.0245C0.939697 21.3947 3.54498 24 7.91516 24H17.9642C22.3344 24 24.9397 21.3947 24.9397 17.0245V6.97549C24.9397 2.6053 22.3344 0 17.9642 0Z" fill="#1E1E1E"/>
<path d="M19.9467 6.64799L15.1742 17.2983C15.0707 17.5317 14.8196 17.615 14.6275 17.4651L12.1599 15.6982L10.7267 17.915C10.5642 18.1649 10.2095 18.0317 10.2095 17.715L10.2686 14.4482L14.5239 10.3981L8.85012 13.2981L6.13142 11.3315C5.85066 11.1315 5.90983 10.6481 6.2349 10.5481L19.4885 6.03129C19.8136 5.93131 20.0944 6.31474 19.9466 6.64807L19.9467 6.64799Z" fill="white"/>
</svg>
