<svg width="25" height="24" viewBox="0 0 25 24" fill="none" xmlns="http://www.w3.org/2000/svg">
<path d="M17.9642 0H7.91516C3.54498 0 0.939697 2.6053 0.939697 6.97549V17.0245C0.939697 21.3947 3.54498 24 7.91516 24H17.9642C22.3344 24 24.9397 21.3947 24.9397 17.0245V6.97549C24.9397 2.6053 22.3344 0 17.9642 0Z" fill="#1E1E1E"/>
<path d="M12.2128 10.4786C10.3693 10.3897 9.08799 11.0469 8.36868 12.4503C7.28972 14.5554 8.18145 18 11.781 18C15.3805 18 15.4847 14.5217 15.4847 14.1574C15.4847 13.9144 15.4847 12.5561 15.4847 10.0825C16.2546 10.5702 16.9037 10.8637 17.432 10.9631C17.9604 11.0626 18.2963 11.1066 18.4397 11.0953V9.06814C17.951 9.00922 17.5284 8.89694 17.1719 8.73127C16.6371 8.48275 15.5766 7.79308 15.5766 6.78224C15.5774 6.78719 15.5774 6.52644 15.5766 6H13.3484C13.3418 10.9511 13.3418 13.6702 13.3484 14.1574C13.3583 14.888 12.7915 15.9101 11.6422 15.9101C10.493 15.9101 9.92613 14.8888 9.92613 14.2301C9.92613 13.8268 10.0646 13.2423 10.6372 12.8095C10.9768 12.5528 11.4481 12.4503 12.2128 12.4503C12.2128 12.2138 12.2128 11.5566 12.2128 10.4786Z" fill="white"/>
</svg>
