<svg width="25" height="24" viewBox="0 0 25 24" fill="none" xmlns="http://www.w3.org/2000/svg">
<path d="M17.9642 0H7.91516C3.54498 0 0.939697 2.6053 0.939697 6.97549V17.0245C0.939697 21.3947 3.54498 24 7.91516 24H17.9642C22.3344 24 24.9397 21.3947 24.9397 17.0245V6.97549C24.9397 2.6053 22.3344 0 17.9642 0Z" fill="#1E1E1E"/>
<path d="M12.6252 8.38008L16.1876 10.5147C17.5433 11.3368 17.5433 12.6636 16.1876 13.4857L12.6252 15.6203C11.1829 16.4857 10.0002 15.8222 10.0002 14.1348V9.85121C10.0002 8.17818 11.1829 7.51472 12.6252 8.38008Z" fill="white"/>
<path d="M12.6252 8.38008L16.1876 10.5147C17.5433 11.3368 17.5433 12.6636 16.1876 13.4857L12.6252 15.6203C11.1829 16.4857 10.0002 15.8222 10.0002 14.1348V9.85121C10.0002 8.17818 11.1829 7.51472 12.6252 8.38008Z" fill="white" fill-opacity="0.2"/>
</svg>
