<svg width="20" height="20" viewBox="0 0 20 20" fill="none" xmlns="http://www.w3.org/2000/svg">
<path d="M12.5743 17.225C12.7327 17.225 12.891 17.1667 13.016 17.0417C13.2577 16.8 13.2577 16.4 13.016 16.1583L7.58268 10.725C7.18268 10.325 7.18268 9.67502 7.58268 9.27502L13.016 3.84168C13.2577 3.60002 13.2577 3.20002 13.016 2.95835C12.7743 2.71668 12.3743 2.71668 12.1327 2.95835L6.69935 8.39168C6.27435 8.81668 6.03268 9.39168 6.03268 10C6.03268 10.6083 6.26602 11.1833 6.69935 11.6083L12.1327 17.0417C12.2577 17.1583 12.416 17.225 12.5743 17.225Z" fill="#292D32"/>
</svg>
