<svg width="129" height="176" viewBox="0 0 129 176" fill="none" xmlns="http://www.w3.org/2000/svg">
<path d="M31.2943 144.113H28.7307V166.451H40.7524V164.227H31.2943V144.113Z" fill="#1E1E1E"/>
<path d="M61.542 144.113L54.9509 166.444H57.78L59.4714 160.027H66.7678L68.6033 166.444H71.4248L64.9399 144.113H61.542ZM60.0782 157.803L63.1424 145.913H63.203L66.199 157.803H60.0782Z" fill="#1E1E1E"/>
<path d="M96.2495 154.642V154.583C97.3265 154.313 98.1608 153.742 98.7448 152.878C99.3288 152.015 99.6246 150.961 99.6246 149.703C99.6246 147.969 99.0937 146.601 98.0243 145.605C96.9548 144.61 95.3696 144.113 93.2687 144.113H87.1934V166.444H93.5796C95.7337 166.444 97.3871 165.895 98.54 164.798C99.6929 163.7 100.269 162.12 100.269 160.049C100.269 158.542 99.8825 157.298 99.1089 156.317C98.3276 155.344 97.3796 154.781 96.2495 154.642ZM89.7494 146.359H93.2004C94.4215 146.359 95.3545 146.637 95.9916 147.186C96.6287 147.735 96.9472 148.627 96.9472 149.857C96.9472 151.232 96.6135 152.198 95.9537 152.761C95.2862 153.325 94.285 153.61 92.935 153.61H89.7494V146.359ZM96.6211 163.217C95.9688 163.89 94.9601 164.227 93.5796 164.227H89.7494V155.849H93.3597C96.1812 155.849 97.5995 157.239 97.5995 160.027C97.5995 161.483 97.2734 162.544 96.6211 163.217Z" fill="#1E1E1E"/>
<path d="M87.2465 117.597C86.5563 116.492 85.0697 116.133 83.9169 116.792L66.9272 126.633V73.6661H85.2518C86.5942 73.6661 87.6788 72.6198 87.6788 71.3247C87.6788 70.0296 86.5942 68.9833 85.2518 68.9833H66.9272V16.0238L83.9169 25.865C84.3113 26.0918 84.736 26.2015 85.1607 26.2015C85.9875 26.2015 86.7839 25.7991 87.2389 25.0674C87.9291 23.9626 87.5575 22.5212 86.4046 21.8553L65.744 9.88492C65.6985 9.85566 65.6378 9.85566 65.5923 9.8337C65.4482 9.76054 65.2889 9.71664 65.1296 9.67273C64.9704 9.62883 64.8187 9.59225 64.6594 9.58493C64.5987 9.57761 64.5532 9.55566 64.4925 9.55566C64.3939 9.55566 64.3105 9.59957 64.2119 9.60688C64.045 9.62883 63.8857 9.65078 63.7265 9.702C63.5748 9.75322 63.4458 9.81175 63.3169 9.88492C63.1804 9.95809 63.059 10.0313 62.9377 10.1337C62.8087 10.2361 62.7101 10.3532 62.6039 10.4849C62.5433 10.5581 62.4598 10.6093 62.4067 10.6898C62.3764 10.741 62.3764 10.7922 62.3536 10.8434C62.2778 10.9825 62.2399 11.1215 62.1944 11.2751C62.1489 11.4288 62.1034 11.5824 62.0958 11.7434C62.0958 11.7946 62.0654 11.8385 62.0654 11.8971V130.774C62.0654 130.825 62.0958 130.877 62.0958 130.928C62.1034 131.089 62.1489 131.243 62.1944 131.396C62.2399 131.543 62.2778 131.689 62.3536 131.821C62.3764 131.872 62.384 131.93 62.4143 131.974C62.5053 132.128 62.6267 132.252 62.7481 132.377C62.7632 132.391 62.7784 132.413 62.7936 132.428C62.9983 132.618 63.2259 132.764 63.4762 132.874C63.5369 132.903 63.5899 132.918 63.6506 132.94C63.9237 133.035 64.2043 133.108 64.4925 133.108C64.7732 133.108 65.0538 133.042 65.3268 132.947C65.4027 132.918 65.4709 132.896 65.5392 132.86C65.6075 132.83 65.6757 132.816 65.744 132.779L86.4122 120.809C87.5575 120.143 87.9367 118.709 87.2465 117.597Z" fill="#1E1E1E"/>
<path d="M56.3314 126.04C57.0216 124.935 56.65 123.494 55.4971 122.828L15.6017 99.7286V42.935L55.4971 19.8283C56.6424 19.1625 57.014 17.7284 56.3314 16.6162C55.6412 15.5114 54.1546 15.1456 53.0017 15.8114L10.7476 40.2863V102.377L53.0017 126.845C53.3885 127.072 53.8209 127.181 54.2456 127.181C55.0723 127.174 55.8763 126.772 56.3314 126.04Z" fill="#1E1E1E"/>
<path d="M117.069 80.9754L97.5844 69.6928V33.8913L114.384 43.6155C114.779 43.8423 115.204 43.952 115.628 43.952C116.455 43.952 117.251 43.5496 117.707 42.8179C118.397 41.7131 118.025 40.2716 116.872 39.6058L97.4706 28.3744C97.3341 28.2939 97.1748 28.272 97.0307 28.2208C96.5832 27.6793 95.931 27.3062 95.1573 27.3062C93.8148 27.3062 92.7302 28.3525 92.7302 29.6476V113.016C92.7302 114.311 93.8148 115.357 95.1573 115.357C96.4998 115.357 97.5844 114.311 97.5844 113.016V75.1512L114.574 84.9924C114.968 85.2192 115.393 85.3289 115.818 85.3289C116.645 85.3289 117.441 84.9265 117.896 84.1948C118.594 83.0753 118.222 81.6412 117.069 80.9754Z" fill="#1E1E1E"/>
</svg>
