<svg width="56" height="56" viewBox="0 0 56 56" fill="none" xmlns="http://www.w3.org/2000/svg">
<path d="M22.3303 43.9131C21.887 43.9131 21.4437 43.7498 21.0937 43.3998L6.93035 29.2365C6.25368 28.5598 6.25368 27.4398 6.93035 26.7631L21.0937 12.5998C21.7704 11.9231 22.8904 11.9231 23.567 12.5998C24.2437 13.2765 24.2437 14.3965 23.567 15.0731L10.6404 27.9998L23.567 40.9265C24.2437 41.6031 24.2437 42.7231 23.567 43.3998C23.2404 43.7498 22.7737 43.9131 22.3303 43.9131Z" fill="#292D32"/>
<path d="M47.8335 29.75H8.56348C7.60681 29.75 6.81348 28.9567 6.81348 28C6.81348 27.0433 7.60681 26.25 8.56348 26.25H47.8335C48.7901 26.25 49.5835 27.0433 49.5835 28C49.5835 28.9567 48.7901 29.75 47.8335 29.75Z" fill="#292D32"/>
</svg>
